<?xml version="1.0" encoding="UTF-8" standalone="no"?>
<!DOCTYPE svg PUBLIC "-//W3C//DTD SVG 1.1//EN" "http://www.w3.org/Graphics/SVG/1.1/DTD/svg11.dtd">
<svg width="100%" height="100%" viewBox="0 0 182 86" version="1.1" xmlns="http://www.w3.org/2000/svg" xmlns:xlink="http://www.w3.org/1999/xlink" xml:space="preserve" style="fill-rule:evenodd;clip-rule:evenodd;stroke-linejoin:round;stroke-miterlimit:1.41421;">
    <rect id="Artboard1" x="0" y="0" width="181.697" height="85.942" style="fill:none;"/>
    <clipPath id="_clip1">
        <rect id="Artboard11" x="0" y="0" width="181.697" height="85.942"/>
    </clipPath>
    <g clip-path="url(#_clip1)">
        <g transform="matrix(0.242146,0,0,0.242146,-49.4553,23.2496)">
            <g transform="matrix(4.16667,0,0,4.16667,0,-2285.92)">
                <path d="M100.173,545.84C104.135,542.793 112.365,546.755 114.194,547.059C116.022,547.364 120.899,549.498 121.509,547.669C122.119,545.84 134.92,527.247 137.663,525.724C140.407,524.199 167.534,551.632 167.534,551.632C167.534,551.632 167.839,545.536 173.935,548.279C180.031,551.022 229.104,595.524 229.104,595.524L226.815,595.511C226.047,594.795 225.349,594.198 224.833,593.846C222.392,592.178 173.931,549.878 173.931,549.878C173.931,549.878 177.589,557.117 183.38,561.384C189.172,565.652 197.401,574.186 197.401,574.186L186.428,570.529C186.428,570.529 191.61,576.32 195.877,580.892C198.855,584.083 208.957,590.835 215.722,595.453L184.23,595.287C179.756,586.612 169.801,573.662 167.227,569.919C163.874,565.042 155.644,551.022 156.254,552.545C156.864,554.069 155.644,565.636 155.644,565.636C155.644,565.636 148.939,549.498 148.634,544.925C148.329,540.353 137.814,527.856 137.814,527.856C137.509,529.228 137.356,537.61 137.356,537.61C137.356,537.61 141.014,544.011 141.319,545.535C141.624,547.059 140.405,550.107 143.147,554.069C145.891,558.032 147.415,564.737 147.415,564.737C147.415,564.737 139.49,560.775 135.527,557.117C131.565,553.459 124.859,551.631 124.859,551.631C124.859,551.631 137.356,568.09 141.319,570.224C144.017,571.677 154.333,586.99 160.651,595.163C136.793,595.038 149.67,590.917 136.29,577.539C134.157,575.406 133.852,581.502 132.023,581.197C130.194,580.893 127.451,571.138 125.318,566.262C123.184,561.385 103.981,546.755 103.981,546.755C103.981,546.755 102.305,547.821 101.543,549.65C100.781,551.479 98.647,568.091 98.647,568.091C98.647,568.091 104.439,562.909 106.267,559.556C108.096,556.204 112.669,564.128 112.974,565.957C113.278,567.786 109.316,567.176 107.792,568.7C106.268,570.224 104.93,576.893 104.439,581.807C103.948,586.721 94.019,599.558 88.517,603.723L54.366,596.151C55.392,595.191 56.105,594.2 57.13,593.165C71.878,578.27 86.73,556.181 100.173,545.84Z"/>
            </g>
            <g transform="matrix(4.16667,0,0,4.16667,0,-2285.92)">
                <path d="M57.13,593.165C71.262,598.216 107.972,601.515 114.471,601.168C174.753,597.939 168.786,590.564 228.894,595.581L202.369,597.099C173.95,598.769 87.604,623.376 49.017,601.928L57.13,593.165Z"/>
            </g>
        </g>
    </g>
</svg>
