<?xml version="1.0" encoding="UTF-8" standalone="no"?>
<!DOCTYPE svg PUBLIC "-//W3C//DTD SVG 1.1//EN" "http://www.w3.org/Graphics/SVG/1.1/DTD/svg11.dtd">
<svg width="100%" height="100%" viewBox="0 0 136 88" version="1.1" xmlns="http://www.w3.org/2000/svg" xmlns:xlink="http://www.w3.org/1999/xlink" xml:space="preserve" xmlns:serif="http://www.serif.com/" style="fill-rule:evenodd;clip-rule:evenodd;stroke-linejoin:round;stroke-miterlimit:2;">
    <g transform="matrix(0.994864,0,0,0.98907,-47.6958,-518.174)">
        <path d="M95.52,550.585C99.482,547.538 109.789,522.983 111.252,524.537C107.784,520.568 153.864,567.944 153.864,567.944L179.7,595.478L104.296,606.337L54.366,596.151C55.392,595.191 56.105,594.2 57.13,593.165C71.878,578.27 82.077,560.926 95.52,550.585Z" style="fill:white;"/>
    </g>
    <g transform="matrix(1.00895,0,0,1.00894,-50.4553,-530.17)">
        <path d="M54.806,596.658C55.832,595.698 95.126,549.308 95.736,547.479C96.346,545.65 109.147,527.057 111.89,525.534C114.634,524.009 141.761,551.442 141.761,551.442L160.171,571.178C160.171,571.178 165.837,577.089 170.104,581.661C173.082,584.852 177.799,589.412 184.149,595.361L160.082,597.095C155.608,588.42 144.028,573.472 141.454,569.729C138.101,564.852 129.871,550.832 130.481,552.355C131.091,553.879 129.871,565.446 129.871,565.446C129.871,565.446 123.166,549.308 122.861,544.735C122.556,540.163 112.041,527.666 112.041,527.666C111.736,529.038 111.583,537.42 111.583,537.42C111.583,537.42 115.241,543.821 115.546,545.345C115.851,546.869 114.632,549.917 117.374,553.879C120.118,557.842 121.642,564.547 121.642,564.547C121.642,564.547 113.717,560.585 109.754,556.927C105.792,553.269 99.086,551.441 99.086,551.441C99.086,551.441 111.583,567.9 115.546,570.034C118.244,571.487 128.56,586.8 134.878,594.973C111.02,594.848 123.897,590.727 110.517,577.349C108.384,575.216 108.079,581.312 106.25,581.007C104.421,580.703 101.678,570.948 99.545,566.072C97.411,561.195 93.561,600.883 88.059,605.048L70.669,603.672L54.806,596.658Z" style="fill:rgb(51,63,77);"/>
    </g>
    <g transform="matrix(0.902527,0,0,1.00894,-44.239,-530.17)">
        <path d="M55.299,595.729C69.431,600.78 91.028,603.538 112.442,602.812C160.241,601.192 155.002,596.433 198.975,595.355L169.442,600.73C141.723,604.43 87.604,623.376 49.017,601.928L55.299,595.729Z" style="fill:rgb(185,155,112);"/>
    </g>
    <g id="Artboard2" transform="matrix(1,0,0,1.00721,0,-0.336859)">
        <rect x="0" y="0.334" width="135.341" height="86.666" style="fill:none;"/>
    </g>
</svg>
